{
    "asset" : {
        "generator" : "Khronos glTF Blender I/O v1.5.17",
        "version" : "2.0"
    },
    "scene" : 0,
    "scenes" : [
        {
            "name" : "Scene",
            "nodes" : [
                0,
                1
            ]
        }
    ],
    "nodes" : [
        {
            "mesh" : 0,
            "name" : "Cube.001",
            "rotation" : [
                0.2588190734386444,
                0,
                0,
                0.965925931930542
            ],
            "translation" : [
                0.18018482625484467,
                -0.29229408502578735,
                -0.0039641112089157104
            ]
        },
        {
            "mesh" : 1,
            "name" : "Cube.005",
            "rotation" : [
                0,
                0.7071067690849304,
                0,
                0.7071068286895752
            ],
            "translation" : [
                0,
                -0.2879067063331604,
                0
            ]
        }
    ],
    "materials" : [
        {
            "doubleSided" : true,
            "name" : "SolarCell",
            "pbrMetallicRoughness" : {
                "baseColorTexture" : {
                    "index" : 0
                },
                "metallicFactor" : 0.508650541305542,
                "roughnessFactor" : 0.5
            }
        },
        {
            "doubleSided" : true,
            "name" : "Material.001",
            "pbrMetallicRoughness" : {
                "baseColorFactor" : [
                    0.021465040743350983,
                    0.024051910266280174,
                    0.03521820157766342,
                    1
                ],
                "metallicFactor" : 0.512110710144043,
                "roughnessFactor" : 0.5
            }
        },
        {
            "doubleSided" : true,
            "name" : "Aluminium",
            "pbrMetallicRoughness" : {
                "baseColorFactor" : [
                    0.5130534172058105,
                    0.5519459843635559,
                    0.6266639828681946,
                    1
                ],
                "metallicFactor" : 0.7474048137664795,
                "roughnessFactor" : 0.5
            }
        }
    ],
    "meshes" : [
        {
            "name" : "Cube",
            "primitives" : [
                {
                    "attributes" : {
                        "POSITION" : 0,
                        "NORMAL" : 1,
                        "TEXCOORD_0" : 2
                    },
                    "indices" : 3,
                    "material" : 0
                },
                {
                    "attributes" : {
                        "POSITION" : 4,
                        "NORMAL" : 5,
                        "TEXCOORD_0" : 6
                    },
                    "indices" : 7,
                    "material" : 1
                },
                {
                    "attributes" : {
                        "POSITION" : 8,
                        "NORMAL" : 9,
                        "TEXCOORD_0" : 10
                    },
                    "indices" : 11,
                    "material" : 2
                }
            ]
        },
        {
            "name" : "Cube.005",
            "primitives" : [
                {
                    "attributes" : {
                        "POSITION" : 12,
                        "NORMAL" : 13,
                        "TEXCOORD_0" : 14
                    },
                    "indices" : 15,
                    "material" : 2
                }
            ]
        }
    ],
    "textures" : [
        {
            "sampler" : 0,
            "source" : 0
        }
    ],
    "images" : [
        {
            "bufferView" : 4,
            "mimeType" : "image/png",
            "name" : "solar-lines"
        }
    ],
    "accessors" : [
        {
            "bufferView" : 0,
            "componentType" : 5126,
            "count" : 72,
            "max" : [
                1.1933618783950806,
                0.3426421284675598,
                1.3690059185028076
            ],
            "min" : [
                -1.5546053647994995,
                0.3426421284675598,
                -1.378961205482483
            ],
            "type" : "VEC3"
        },
        {
            "bufferView" : 1,
            "componentType" : 5126,
            "count" : 72,
            "type" : "VEC3"
        },
        {
            "bufferView" : 2,
            "componentType" : 5126,
            "count" : 72,
            "type" : "VEC2"
        },
        {
            "bufferView" : 3,
            "componentType" : 5123,
            "count" : 162,
            "type" : "SCALAR"
        },
        {
            "bufferView" : 5,
            "componentType" : 5126,
            "count" : 288,
            "max" : [
                1.1933618783950806,
                0.3426421284675598,
                1.3690059185028076
            ],
            "min" : [
                -1.5546053647994995,
                0.2481912225484848,
                -1.378961205482483
            ],
            "type" : "VEC3"
        },
        {
            "bufferView" : 6,
            "componentType" : 5126,
            "count" : 288,
            "type" : "VEC3"
        },
        {
            "bufferView" : 7,
            "componentType" : 5126,
            "count" : 288,
            "type" : "VEC2"
        },
        {
            "bufferView" : 8,
            "componentType" : 5123,
            "count" : 432,
            "type" : "SCALAR"
        },
        {
            "bufferView" : 9,
            "componentType" : 5126,
            "count" : 296,
            "max" : [
                1.39313805103302,
                0.4095778167247772,
                1.5708239078521729
            ],
            "min" : [
                -1.7535074949264526,
                -0.15300270915031433,
                -1.5758217573165894
            ],
            "type" : "VEC3"
        },
        {
            "bufferView" : 10,
            "componentType" : 5126,
            "count" : 296,
            "type" : "VEC3"
        },
        {
            "bufferView" : 11,
            "componentType" : 5126,
            "count" : 296,
            "type" : "VEC2"
        },
        {
            "bufferView" : 12,
            "componentType" : 5123,
            "count" : 474,
            "type" : "SCALAR"
        },
        {
            "bufferView" : 13,
            "componentType" : 5126,
            "count" : 96,
            "max" : [
                0.3609146177768707,
                0.06727816164493561,
                0.3609146177768707
            ],
            "min" : [
                -0.3609146177768707,
                -2.4563608169555664,
                -0.3609146177768707
            ],
            "type" : "VEC3"
        },
        {
            "bufferView" : 14,
            "componentType" : 5126,
            "count" : 96,
            "type" : "VEC3"
        },
        {
            "bufferView" : 15,
            "componentType" : 5126,
            "count" : 96,
            "type" : "VEC2"
        },
        {
            "bufferView" : 16,
            "componentType" : 5123,
            "count" : 156,
            "type" : "SCALAR"
        }
    ],
    "bufferViews" : [
        {
            "buffer" : 0,
            "byteLength" : 864,
            "byteOffset" : 0
        },
        {
            "buffer" : 0,
            "byteLength" : 864,
            "byteOffset" : 864
        },
        {
            "buffer" : 0,
            "byteLength" : 576,
            "byteOffset" : 1728
        },
        {
            "buffer" : 0,
            "byteLength" : 324,
            "byteOffset" : 2304
        },
        {
            "buffer" : 0,
            "byteLength" : 398,
            "byteOffset" : 2628
        },
        {
            "buffer" : 0,
            "byteLength" : 3456,
            "byteOffset" : 3028
        },
        {
            "buffer" : 0,
            "byteLength" : 3456,
            "byteOffset" : 6484
        },
        {
            "buffer" : 0,
            "byteLength" : 2304,
            "byteOffset" : 9940
        },
        {
            "buffer" : 0,
            "byteLength" : 864,
            "byteOffset" : 12244
        },
        {
            "buffer" : 0,
            "byteLength" : 3552,
            "byteOffset" : 13108
        },
        {
            "buffer" : 0,
            "byteLength" : 3552,
            "byteOffset" : 16660
        },
        {
            "buffer" : 0,
            "byteLength" : 2368,
            "byteOffset" : 20212
        },
        {
            "buffer" : 0,
            "byteLength" : 948,
            "byteOffset" : 22580
        },
        {
            "buffer" : 0,
            "byteLength" : 1152,
            "byteOffset" : 23528
        },
        {
            "buffer" : 0,
            "byteLength" : 1152,
            "byteOffset" : 24680
        },
        {
            "buffer" : 0,
            "byteLength" : 768,
            "byteOffset" : 25832
        },
        {
            "buffer" : 0,
            "byteLength" : 312,
            "byteOffset" : 26600
        }
    ],
    "samplers" : [
        {
            "magFilter" : 9729,
            "minFilter" : 9987
        }
    ],
    "buffers" : [
        {
            "byteLength" : 26912,
            "uri" : "data:application/octet-stream;base64,"
        }
    ]
}
